<svg version="1.0" xmlns="http://www.w3.org/2000/svg" preserveAspectRatio="xMidYMid meet" viewBox="139 250.17 1897 701.93">

<g transform="translate(0.000000,1500.000000) scale(0.100000,-0.100000)" fill="hsla(0,0%,0%,1)" stroke="none">
<path d="M16864 12475 c-91 -27 -218 -84 -251 -113 -13 -11 -28 -33 -34 -48 -13 -31 -26 -562 -28 -1106 l-1 -308 -65 0 c-63 0 -66 -1 -85 -32 -11 -18 -18 -38 -15 -45 2 -7 0 -15 -5 -18 -13 -8 -13 -128 -1 -141 5 -5 23 -37 40 -70 29 -57 31 -69 31 -164 0 -100 1 -102 36 -156 51 -76 84 -100 180 -130 115 -36 123 -44 134 -129 14 -105 12 -302 -4 -370 -7 -33 -14 -67 -15 -75 0 -8 -8 -55 -17 -105 -23 -135 -28 -205 -14 -205 9 0 9 -4 2 -12 -8 -11 -24 -60 -37 -113 -1 -5 -5 -17 -8 -25 -20 -53 -63 -216 -77 -293 -5 -26 -12 -56 -15 -67 -3 -10 -8 -27 -10 -37 -3 -10 -10 -39 -16 -64 -18 -71 -7 -97 42 -105 38 -6 40 -8 33 -33 -4 -14 -9 -149 -10 -299 l-2 -274 -39 -34 c-27 -24 -33 -34 -20 -34 26 0 20 -19 -8 -26 -14 -3 -22 -10 -19 -15 3 -5 10 -7 15 -3 6 3 7 -18 4 -58 -6 -57 -4 -66 19 -97 14 -19 26 -48 26 -63 0 -35 13 -35 52 -3 16 14 35 25 43 25 17 0 74 59 88 90 12 31 14 34 27 88 5 23 19 59 30 80 11 20 20 46 20 58 0 12 6 27 14 33 8 7 16 28 19 49 8 56 10 64 40 114 15 26 27 49 27 53 0 3 11 30 24 58 14 29 26 59 28 67 2 8 5 17 8 20 14 14 40 84 40 108 0 35 17 57 55 70 17 5 37 13 46 17 14 5 18 -5 23 -72 8 -96 8 -110 -3 -298 -4 -82 -13 -166 -20 -185 -6 -19 -9 -48 -6 -65 3 -16 2 -69 -3 -117 -6 -71 -5 -88 5 -88 11 0 11 -5 3 -20 -8 -15 -8 -20 3 -20 7 0 23 -18 36 -40 12 -22 26 -40 32 -40 5 0 9 -6 9 -14 0 -8 12 -29 26 -46 38 -44 81 -39 107 11 11 20 30 42 43 48 20 9 24 18 24 54 0 23 -6 51 -14 62 -21 31 -36 91 -24 103 5 5 11 16 12 23 1 8 15 40 29 73 15 32 27 60 27 63 0 2 12 30 27 61 15 31 28 59 28 62 1 3 16 35 33 72 17 37 34 80 37 95 2 16 12 55 21 88 22 80 27 110 27 171 l0 52 57 5 c31 4 74 12 96 19 38 13 39 14 42 66 2 29 -2 101 -8 160 -11 100 -24 355 -21 412 4 94 1 135 -12 212 -12 76 -12 116 -1 300 8 117 15 219 16 226 5 40 161 174 258 222 51 25 226 153 252 185 27 31 22 53 -37 172 -30 62 -55 116 -55 122 0 6 -5 11 -12 11 -6 0 -8 3 -5 7 4 3 2 12 -3 18 -7 9 1 16 30 28 23 9 40 22 40 31 0 9 -18 36 -39 59 -47 51 -91 134 -91 172 0 36 -33 62 -100 76 -30 6 -69 18 -87 25 -43 19 -52 18 -119 -15 -32 -16 -71 -34 -86 -40 -34 -13 -36 -37 -8 -91 29 -57 74 -104 117 -124 47 -21 64 -52 73 -136 17 -143 29 -190 52 -190 6 0 -7 -14 -30 -31 -41 -30 -47 -31 -134 -30 -50 1 -95 4 -99 7 -5 3 -50 -2 -100 -11 -51 -8 -93 -14 -95 -12 -2 1 1 20 6 42 12 53 12 115 0 115 -5 0 -33 23 -62 50 -71 68 -117 85 -193 71 -32 -6 -80 -11 -106 -11 -53 0 -75 -15 -86 -58 -3 -15 -13 -37 -21 -50 -16 -24 -12 -123 6 -145 5 -7 13 -22 16 -34 l7 -22 -73 25 c-62 22 -86 25 -159 21 -47 -2 -93 0 -102 4 -26 15 -61 81 -63 117 0 19 -6 37 -11 40 -6 4 -14 28 -18 54 -6 39 -3 53 14 81 33 54 28 109 -13 152 -19 19 -41 35 -49 35 -19 0 -26 201 -29 817 l-2 471 25 36 c29 42 127 90 269 132 133 39 154 61 105 109 -30 31 -57 31 -161 0z m392 -3730 c-28 -119 -45 -126 -53 -22 -6 67 9 161 29 185 10 12 15 5 26 -39 12 -47 12 -63 -2 -124z"/>
<path d="M5695 11142 c-22 -11 -52 -32 -67 -48 -36 -39 -77 -130 -90 -201 -10 -53 -9 -63 11 -100 28 -57 28 -77 -3 -69 -107 27 -302 33 -464 15 -197 -21 -452 -89 -552 -147 -103 -59 -179 -156 -180 -228 0 -35 48 -171 93 -263 18 -35 54 -88 80 -117 l49 -54 -62 -57 c-106 -98 -190 -233 -190 -305 0 -24 -39 -142 -106 -321 -59 -155 -119 -317 -135 -360 -42 -113 -38 -107 -257 -399 -202 -269 -322 -459 -322 -511 0 -21 -14 -40 -55 -78 -56 -53 -80 -101 -73 -148 4 -24 1 -27 -19 -23 -32 6 -30 -16 8 -69 77 -108 140 -155 195 -144 39 7 41 26 4 35 -13 3 -25 11 -28 19 -3 10 0 11 15 3 15 -8 27 -6 50 8 33 19 34 22 53 108 14 63 55 108 144 162 47 28 85 68 195 204 215 266 241 300 241 314 0 6 4 12 9 12 5 0 37 19 71 42 59 39 184 175 226 247 18 31 23 32 69 14 6 -2 23 25 38 61 37 84 113 198 177 264 41 42 57 52 84 52 38 0 68 -27 69 -62 0 -13 -5 -56 -12 -97 -16 -87 -6 -114 46 -133 29 -10 33 -17 33 -46 0 -26 -10 -45 -45 -84 -24 -27 -63 -77 -85 -111 -23 -34 -61 -84 -83 -111 -78 -90 -153 -196 -217 -304 -35 -59 -77 -123 -92 -144 -16 -20 -40 -62 -54 -92 l-26 -57 21 -40 c12 -22 19 -45 16 -50 -8 -12 -48 -12 -61 0 -5 6 -16 4 -28 -4 -17 -13 -6 -20 124 -85 78 -38 148 -70 156 -70 19 0 64 22 64 32 0 4 -9 8 -19 8 -30 0 -51 11 -51 26 0 11 7 10 36 -3 32 -16 38 -16 62 -3 30 18 44 65 32 113 -23 91 -23 91 30 116 49 23 147 121 430 431 68 74 150 160 183 190 84 77 152 222 171 365 6 45 -14 394 -30 518 -3 26 -3 47 0 47 6 0 846 -459 856 -467 2 -2 -2 -18 -9 -36 -28 -67 -26 -80 17 -114 22 -18 53 -35 68 -38 16 -4 46 -13 67 -21 55 -20 119 -18 150 6 14 11 29 20 34 20 5 0 128 -66 274 -146 145 -80 298 -164 339 -186 72 -39 98 -53 240 -133 126 -70 151 -79 235 -83 76 -4 87 -1 220 48 77 28 163 60 190 70 84 30 96 85 35 153 l-29 32 -48 -26 c-78 -44 -237 -108 -305 -124 -35 -8 -98 -15 -140 -15 -84 0 -67 -7 -333 140 -27 15 -131 72 -230 126 -99 54 -223 121 -275 150 -78 42 -95 56 -97 76 -1 14 -13 54 -28 89 -21 50 -26 79 -24 134 2 110 0 120 -26 159 -19 28 -21 36 -9 36 9 0 -13 27 -49 63 -72 72 -111 144 -120 226 -4 32 -21 81 -43 123 -54 105 -83 190 -110 317 -35 170 -68 232 -178 339 -50 48 -117 108 -148 131 -65 49 -69 64 -38 129 11 22 20 49 20 58 0 9 8 23 17 30 16 11 17 16 4 46 -7 18 -15 45 -18 60 -4 23 -1 27 23 30 28 3 29 6 32 60 6 110 -63 199 -194 249 -103 40 -194 47 -249 21z m349 -1454 c9 -48 59 -150 106 -215 22 -31 40 -64 40 -72 0 -9 16 -49 35 -89 40 -85 141 -197 168 -186 12 4 17 1 17 -13 0 -10 5 -24 11 -30 6 -6 9 -18 7 -26 -2 -11 -26 -2 -103 40 -119 66 -392 214 -565 308 -69 37 -126 69 -128 70 -2 1 61 41 140 88 79 48 166 102 193 121 28 19 55 35 61 35 7 1 15 -14 18 -31z"/>
<path d="M10660 10973 c-14 -2 -32 -7 -40 -10 -8 -4 -17 -7 -20 -8 -48 -12 -159 -64 -186 -86 -8 -6 -14 -24 -14 -40 0 -16 -4 -29 -10 -29 -5 0 -12 0 -15 0 -3 0 -19 -8 -37 -18 -34 -20 -57 -54 -78 -117 -22 -70 -26 -70 -98 -10 -79 65 -107 72 -99 22 6 -42 -24 -90 -44 -69 -22 21 -26 14 -32 -61 -5 -60 -14 -89 -50 -158 -42 -82 -44 -87 -45 -181 -1 -54 2 -98 6 -98 8 0 35 -60 33 -72 0 -5 4 -8 9 -8 6 0 10 -6 10 -13 0 -19 60 -88 70 -82 5 3 11 1 15 -5 3 -5 15 -10 26 -10 13 0 19 -7 20 -22 0 -13 5 -61 10 -108 6 -47 12 -101 14 -120 2 -19 9 -64 15 -100 6 -36 12 -76 12 -90 0 -14 4 -29 8 -35 4 -5 11 -41 15 -80 4 -38 11 -75 17 -82 5 -6 8 -20 7 -30 -1 -10 1 -25 4 -33 6 -15 16 -72 19 -100 0 -8 4 -19 8 -25 4 -5 11 -32 15 -59 3 -27 11 -56 15 -65 8 -15 28 -92 34 -133 1 -10 5 -21 9 -24 15 -15 6 -34 -17 -34 -12 0 -37 -5 -54 -11 -24 -8 -31 -17 -35 -47 -3 -20 -9 -51 -13 -69 -4 -23 -2 -37 9 -48 9 -9 15 -33 15 -59 0 -55 6 -64 48 -82 23 -9 34 -21 34 -34 0 -11 5 -20 10 -20 6 0 10 -6 10 -13 0 -8 23 -33 51 -57 l50 -42 -73 -69 c-40 -37 -78 -68 -85 -69 -6 0 -13 -3 -15 -7 -1 -5 -38 -25 -80 -45 -91 -45 -118 -77 -116 -139 1 -24 -2 -58 -6 -76 -8 -31 -7 -32 32 -42 42 -12 117 -6 330 24 136 20 194 46 202 89 3 16 13 34 23 40 15 9 23 5 47 -24 16 -19 30 -39 30 -43 0 -5 6 -14 13 -21 6 -8 19 -24 27 -36 31 -46 99 -131 177 -222 111 -129 136 -167 121 -185 -16 -20 -63 -43 -87 -43 -21 0 -29 -21 -23 -59 4 -21 9 -23 40 -17 40 6 132 88 132 117 0 9 -37 61 -83 115 -45 54 -108 133 -140 174 -31 41 -63 82 -70 90 -14 17 -49 64 -101 139 -33 46 -37 58 -31 90 3 20 8 59 10 86 6 77 17 139 27 152 5 6 8 17 7 25 -3 21 38 114 65 145 55 62 126 191 126 227 0 8 4 17 8 20 4 2 7 28 5 56 -2 65 7 90 55 146 38 45 61 53 84 31 50 -50 87 -47 139 12 62 68 71 80 104 134 45 73 85 117 106 117 11 0 27 5 37 11 15 9 26 7 59 -14 22 -14 44 -23 47 -20 3 4 6 1 6 -5 0 -7 4 -12 9 -12 5 0 22 -5 38 -12 15 -6 32 -10 37 -9 4 1 13 -2 20 -8 6 -5 38 -14 71 -21 33 -7 65 -16 70 -20 6 -4 26 -11 45 -15 19 -4 49 -16 66 -26 17 -10 38 -19 45 -19 8 -1 32 -9 54 -20 22 -11 47 -20 55 -20 8 0 27 -6 42 -14 15 -8 42 -17 60 -21 18 -4 51 -15 73 -25 22 -10 69 -22 103 -26 34 -3 65 -11 68 -15 8 -13 38 -11 70 6 19 10 59 15 117 15 61 0 101 5 125 16 21 9 55 25 78 35 22 11 81 26 130 34 123 19 223 43 260 60 16 8 49 17 72 21 41 6 42 6 42 -20 0 -51 16 -66 71 -66 60 0 106 22 119 55 5 14 14 25 20 25 13 0 50 -60 50 -82 0 -10 5 -18 10 -18 6 0 10 -7 10 -15 0 -24 41 -94 67 -115 26 -20 63 -25 98 -11 10 4 32 3 47 -3 24 -9 31 -7 51 12 22 22 22 26 22 281 0 175 -4 266 -12 282 -6 13 -16 38 -21 54 -12 43 -53 61 -93 41 -29 -15 -33 -14 -61 5 -23 17 -38 20 -76 16 -54 -6 -81 -12 -102 -20 -42 -17 -142 -26 -214 -21 -68 6 -84 4 -95 -10 -11 -13 -33 -16 -109 -16 -99 0 -222 -18 -222 -32 0 -4 -5 -8 -12 -8 -7 0 -28 -11 -47 -24 -20 -13 -57 -26 -83 -30 -47 -6 -49 -5 -116 53 -38 33 -93 74 -123 92 -30 18 -56 36 -59 39 -3 3 -23 14 -44 25 -47 24 -158 124 -151 135 6 10 -26 70 -37 70 -5 0 -8 4 -8 9 0 5 -4 20 -9 33 -5 13 -8 26 -7 30 2 15 -80 80 -139 109 -40 20 -69 43 -85 67 -35 54 -168 182 -188 182 -5 0 -17 10 -28 21 -39 44 -138 108 -185 120 -27 7 -49 16 -49 21 0 4 -8 8 -18 8 -10 0 -47 23 -81 50 -34 28 -66 50 -72 50 -5 0 -24 17 -44 38 -26 28 -35 46 -35 73 0 46 -32 89 -60 82 -12 -3 -21 0 -22 8 0 8 -2 19 -2 24 -4 24 -25 44 -76 73 -35 20 -60 42 -68 61 -14 33 -67 90 -100 109 -21 11 -181 15 -242 5z m-347 -657 c9 -13 37 -34 62 -48 41 -21 50 -32 77 -93 31 -70 87 -162 121 -200 10 -11 32 -49 50 -85 17 -36 42 -76 54 -90 13 -14 23 -34 23 -45 0 -11 11 -38 25 -60 13 -22 25 -48 25 -57 0 -10 5 -18 10 -18 6 0 10 -16 10 -35 0 -27 -11 -48 -44 -89 -24 -30 -47 -65 -51 -78 -4 -13 -15 -31 -23 -41 -13 -14 -14 -22 -5 -36 9 -15 8 -24 -5 -42 -9 -13 -19 -26 -23 -29 -4 -3 -26 -44 -48 -91 -42 -88 -72 -129 -95 -129 -19 0 -76 -30 -76 -40 0 -5 -6 -15 -12 -22 -7 -8 -25 -36 -39 -63 -32 -62 -46 -66 -54 -18 -4 21 -10 47 -15 58 -5 11 -14 47 -20 80 -6 33 -13 71 -16 85 -2 14 -10 61 -17 105 -7 44 -16 87 -20 95 -3 8 -11 60 -17 115 -6 55 -13 116 -15 135 -6 45 -26 225 -30 270 -2 19 -7 52 -11 73 -6 36 -5 37 23 37 39 0 62 30 74 98 6 31 15 61 20 67 5 5 9 47 9 93 0 112 20 149 53 98z"/>
<path d="M1390 7321 c0 -8 64 -552 170 -1451 22 -184 40 -341 40 -347 0 -10 65 -13 294 -13 l294 0 6 33 c3 17 30 212 61 432 57 412 72 503 74 453 4 -90 121 -860 137 -903 5 -13 44 -15 300 -15 170 0 294 4 294 9 0 12 175 1506 195 1666 8 67 15 126 15 133 0 9 -57 12 -229 12 l-229 0 -5 -22 c-19 -76 -86 -688 -112 -1028 -9 -107 -17 -195 -18 -197 -2 -1 -11 100 -21 225 -29 371 -75 923 -82 975 l-6 47 -242 0 -243 0 -17 -127 c-33 -244 -75 -609 -90 -793 -9 -102 -19 -210 -23 -240 -7 -62 -7 -71 -62 650 -17 217 -33 421 -37 453 l-6 57 -229 0 c-127 0 -229 -4 -229 -9z"/>
<path d="M3350 6420 l0 -910 224 0 225 0 3 598 c3 557 4 600 21 625 22 33 39 41 70 33 46 -11 47 -21 47 -656 l0 -600 231 0 230 0 -4 643 c-3 489 -7 652 -16 684 -18 60 -81 127 -149 160 -49 24 -69 28 -147 28 -106 0 -155 -13 -225 -60 -29 -19 -54 -35 -56 -35 -2 0 -4 90 -4 200 l0 200 -225 0 -225 0 0 -910z"/>
<path d="M6920 6420 l0 -910 235 0 235 0 0 910 0 910 -235 0 -235 0 0 -910z"/>
<path d="M8330 7324 c-14 -2 -52 -9 -85 -15 -136 -25 -260 -98 -310 -183 -37 -63 -59 -190 -52 -301 7 -115 27 -177 77 -247 48 -67 106 -107 351 -243 268 -147 282 -163 283 -311 1 -100 -11 -135 -51 -153 -37 -17 -88 -13 -114 8 -23 18 -24 25 -27 175 l-3 156 -250 0 -249 0 0 -109 c0 -188 33 -304 107 -372 119 -111 357 -169 606 -148 122 10 202 30 293 73 92 44 145 95 175 171 20 53 23 77 24 210 0 160 -11 226 -51 306 -45 90 -171 183 -414 305 -167 84 -219 118 -236 159 -16 39 -19 151 -4 190 12 31 64 55 103 48 45 -9 57 -40 64 -157 l6 -106 244 0 c216 0 244 2 250 16 3 9 1 72 -5 141 -17 191 -56 255 -195 318 -102 47 -200 66 -362 70 -82 2 -161 2 -175 -1z"/>
<path d="M14902 7320 c-91 -13 -207 -47 -282 -82 -87 -42 -190 -144 -214 -213 -26 -75 -39 -354 -32 -680 7 -304 18 -393 61 -482 64 -130 237 -215 497 -243 326 -34 599 29 760 178 87 81 118 190 118 413 l0 99 -304 0 -304 0 -4 -185 c-3 -172 -4 -186 -24 -205 -45 -46 -154 -34 -177 19 -15 34 -22 900 -8 1002 5 39 17 79 25 87 9 9 40 17 73 20 48 3 63 0 83 -16 l25 -20 3 -211 3 -211 306 0 305 0 -4 178 c-6 197 -23 274 -77 349 -57 78 -203 154 -366 188 -93 20 -366 29 -463 15z"/>
<path d="M17526 7292 c-3 -3 -6 -374 -6 -824 l0 -818 300 0 300 0 -2 823 -3 822 -292 1 c-160 1 -294 -1 -297 -4z"/>
<path d="M18345 7292 c-6 -4 -10 -319 -10 -825 l0 -817 303 0 302 0 -2 823 -3 822 -290 2 c-160 1 -295 -1 -300 -5z"/>
<path d="M10632 7183 l3 -108 263 -3 262 -2 0 110 0 110 -265 0 -266 0 3 -107z"/>
<path d="M4911 7015 c-143 -32 -250 -106 -301 -209 -54 -110 -62 -191 -58 -600 4 -339 6 -365 26 -428 43 -130 144 -226 286 -271 61 -19 93 -22 226 -22 133 0 163 3 212 22 79 29 141 75 194 141 67 85 84 143 95 311 6 79 8 150 5 157 -4 11 -49 14 -221 14 l-215 0 0 -147 c0 -207 -13 -243 -89 -243 -57 0 -61 18 -61 267 l0 223 293 2 292 3 -3 175 c-3 185 -17 285 -51 363 -30 69 -119 158 -196 196 -116 57 -294 76 -434 46z m206 -271 c13 -21 18 -55 21 -150 l4 -124 -66 0 -66 0 0 130 c0 117 2 132 20 150 28 28 66 26 87 -6z"/>
<path d="M6084 7015 c-186 -40 -301 -153 -339 -330 -17 -82 -22 -740 -5 -839 12 -73 56 -168 103 -222 45 -51 149 -106 244 -129 102 -25 314 -17 394 14 85 33 147 78 195 143 72 98 86 150 92 326 l4 152 -216 0 -216 0 0 -142 c0 -147 -9 -206 -36 -233 -23 -22 -77 -19 -100 6 -17 19 -19 42 -22 245 l-4 224 296 0 296 0 0 168 c0 271 -37 400 -142 498 -119 111 -348 162 -544 119z m202 -259 c17 -13 19 -29 22 -150 l4 -136 -68 0 -67 0 5 132 c4 121 7 133 28 150 27 22 49 23 76 4z"/>
<path d="M10000 7006 c-69 -15 -129 -46 -182 -94 l-41 -37 6 58 7 57 -265 0 -265 0 0 -690 0 -690 260 0 260 0 0 538 c0 335 4 551 10 574 8 29 18 39 44 48 39 12 79 1 92 -27 5 -10 10 -269 12 -575 l3 -558 255 0 255 0 -3 598 c-3 550 -4 600 -21 637 -61 134 -241 202 -427 161z"/>
<path d="M12095 7007 c-69 -18 -134 -50 -182 -92 -23 -19 -43 -35 -45 -35 -1 0 -1 25 0 55 l4 55 -261 0 -261 0 0 -755 0 -755 255 0 255 0 0 120 0 121 53 -40 c106 -79 202 -108 320 -97 130 12 219 63 262 150 35 71 45 200 45 576 0 357 -11 502 -40 559 -25 49 -96 103 -165 126 -67 22 -178 28 -240 12z m-95 -253 c13 -13 15 -77 15 -455 l0 -441 -24 -19 c-31 -26 -64 -24 -98 5 l-28 24 0 430 c0 459 -1 452 50 473 25 10 65 2 85 -17z"/>
<path d="M13115 7006 c-112 -19 -180 -44 -250 -91 -75 -50 -118 -107 -147 -193 -20 -62 -22 -91 -26 -365 -4 -332 4 -428 44 -518 32 -71 112 -150 187 -185 114 -51 199 -67 372 -68 175 0 243 12 345 61 67 33 168 132 198 194 25 52 45 193 40 286 l-3 58 -241 3 -241 2 -5 -150 c-6 -164 -15 -192 -66 -211 -37 -14 -84 1 -99 31 -9 18 -13 85 -13 223 l0 197 337 0 336 0 -6 163 c-10 243 -42 345 -137 429 -58 52 -166 104 -255 123 -103 22 -276 27 -370 11z m199 -236 c33 -12 46 -61 46 -177 l0 -93 -75 0 -75 0 0 104 c0 117 9 152 42 166 30 12 32 12 62 0z"/>
<path d="M16400 7001 c-231 -51 -347 -144 -391 -313 -16 -63 -24 -538 -10 -654 15 -125 39 -180 110 -247 71 -68 136 -102 260 -135 87 -23 115 -25 296 -26 231 -1 308 12 428 72 85 42 173 125 207 196 20 43 24 69 28 183 l5 133 -277 0 -276 0 0 -112 c-1 -198 -19 -238 -109 -238 -86 0 -91 13 -91 249 l0 191 375 0 375 0 0 143 c-1 285 -56 399 -240 492 -124 62 -199 77 -415 81 -158 3 -204 1 -275 -15z m310 -229 c26 -21 38 -80 39 -184 l1 -68 -85 0 -85 0 0 110 c0 104 1 112 25 135 29 30 73 33 105 7z"/>
<path d="M19023 6988 c2 -7 84 -294 182 -637 134 -469 176 -627 168 -640 -13 -21 -43 -29 -135 -37 l-78 -6 0 -94 0 -95 368 3 367 3 62 29 c69 31 135 95 159 152 8 19 23 72 34 118 21 86 210 1167 210 1199 0 16 -19 17 -259 17 l-258 0 -6 -27 c-3 -16 -24 -218 -48 -451 -24 -233 -47 -415 -51 -405 -6 15 -188 865 -188 879 0 2 -120 4 -266 4 -209 0 -265 -3 -261 -12z"/>
<path d="M10630 6300 l0 -690 265 0 265 0 0 690 0 690 -265 0 -265 0 0 -690z"/>
</g>
</svg>