<svg xmlns="http://www.w3.org/2000/svg" version="1.0" preserveAspectRatio="xMidYMid meet" viewBox="185.17 0 144.59 499.87">

<g transform="translate(0.000000,500.000000) scale(0.100000,-0.100000)" fill="#000000" stroke="none">
<path d="M2219 4981 c-135 -53 -214 -121 -223 -193 -9 -75 -16 -458 -16 -931 l0 -459 -46 3 c-41 3 -48 0 -60 -24 -19 -36 -30 -177 -16 -213 6 -16 20 -54 31 -84 16 -42 21 -78 21 -158 0 -85 4 -110 21 -145 40 -78 60 -98 136 -135 53 -25 78 -43 84 -61 6 -14 13 -91 16 -171 6 -145 0 -222 -42 -524 -9 -68 -11 -105 -4 -118 5 -10 7 -23 3 -30 -13 -21 -104 -488 -121 -624 -6 -45 13 -74 49 -74 17 0 19 -4 12 -23 -4 -12 -9 -146 -11 -297 -1 -151 -2 -278 -3 -282 0 -3 -12 -20 -26 -37 -14 -17 -21 -31 -14 -31 6 0 10 -6 7 -12 -2 -7 -10 -12 -16 -11 -6 2 -11 -4 -11 -13 0 -8 5 -12 11 -9 7 5 8 -12 3 -54 -5 -50 -3 -67 15 -101 11 -22 21 -52 21 -65 0 -28 17 -34 27 -10 3 9 18 22 33 30 41 21 68 72 90 167 26 115 41 170 51 190 5 10 9 29 9 43 0 14 27 106 60 206 33 99 60 193 60 209 0 44 10 59 50 80 l37 19 5 -92 c3 -51 1 -171 -4 -267 -21 -421 -23 -465 -14 -471 5 -4 6 -12 2 -18 -4 -6 -2 -16 4 -23 6 -7 28 -47 48 -88 31 -62 42 -76 64 -78 22 -3 28 2 39 35 6 21 20 44 31 51 23 17 23 54 -1 141 -11 38 -18 71 -15 73 12 12 138 425 150 493 29 156 35 200 32 234 l-3 34 60 14 c93 21 90 9 76 255 -30 533 -32 1053 -5 1146 16 56 7 46 271 299 59 57 94 99 99 118 6 23 -4 63 -44 177 l-51 148 29 15 c37 19 37 30 4 79 -34 49 -74 152 -74 187 0 32 -35 64 -83 75 -17 3 -42 13 -54 22 -19 12 -28 12 -53 2 -16 -7 -35 -19 -42 -27 -7 -8 -23 -19 -35 -24 -32 -12 -38 -34 -24 -88 15 -58 54 -118 90 -139 34 -19 47 -64 56 -187 3 -49 12 -102 19 -117 13 -24 11 -29 -15 -54 -27 -26 -31 -27 -110 -21 -55 3 -99 1 -136 -9 -30 -8 -55 -14 -57 -14 -2 0 0 19 5 43 11 57 11 117 0 117 -5 0 -25 22 -45 50 -49 68 -83 84 -149 71 -29 -6 -65 -12 -82 -14 -28 -2 -32 -7 -54 -75 -23 -66 -24 -79 -14 -135 6 -34 14 -70 18 -80 7 -16 1 -15 -45 8 -43 22 -63 26 -114 24 -33 -2 -67 0 -74 4 -17 11 -54 86 -47 96 3 5 -3 39 -12 75 -17 63 -17 69 0 115 28 81 17 149 -32 183 -28 19 -30 78 -31 729 -2 516 0 571 15 603 22 45 51 66 162 117 49 22 95 44 103 48 37 20 11 101 -33 101 -12 -1 -43 -9 -68 -19z m272 -3741 c-15 -95 -27 -108 -36 -36 -8 60 -1 129 18 186 l11 35 9 -55 c6 -37 6 -80 -2 -130z"/>
</g>
</svg>